<?xml version="1.0" encoding="UTF-8"?>
<svg version="1.1" xmlns="http://www.w3.org/2000/svg" width="1024" height="1024">
<path d="M0,0 L1024,0 L1024,1024 L0,1024 Z M186,182 L186,184 L178,184 L178,186 L172,186 L172,188 L168,188 L168,190 L164,190 L164,192 L160,192 L160,194 L156,194 L156,196 L154,196 L154,198 L152,198 L152,200 L150,200 L150,202 L146,202 L146,204 L144,204 L144,206 L142,206 L142,209 L141,209 L141,210 L140,210 L140,212 L138,212 L138,214 L136,214 L136,216 L134,216 L134,220 L132,220 L132,224 L130,224 L130,226 L128,226 L128,232 L126,232 L126,236 L124,236 L124,244 L122,244 L122,550 L121,550 L121,551 L122,551 L122,566 L121,566 L121,567 L120,567 L120,568 L122,568 L122,575 L121,575 L121,573 L120,573 L120,586 L122,586 L122,587 L120,587 L120,595 L121,595 L121,594 L122,594 L122,613 L121,613 L121,614 L122,614 L122,616 L121,616 L121,617 L122,617 L122,680 L120,680 L120,681 L122,681 L122,686 L121,686 L121,687 L122,687 L122,764 L124,764 L124,772 L126,772 L126,778 L128,778 L128,782 L130,782 L130,786 L132,786 L132,788 L134,788 L134,792 L136,792 L136,794 L138,794 L138,798 L140,798 L140,800 L142,800 L142,802 L144,802 L144,804 L146,804 L146,806 L148,806 L148,808 L150,808 L150,810 L154,810 L154,812 L156,812 L156,814 L158,814 L158,816 L162,816 L162,818 L166,818 L166,820 L170,820 L170,822 L176,822 L176,824 L182,824 L182,826 L190,826 L190,828 L844,828 L844,826 L852,826 L852,824 L858,824 L858,822 L862,822 L862,820 L866,820 L866,818 L870,818 L870,816 L874,816 L874,814 L876,814 L876,812 L880,812 L880,810 L882,810 L882,808 L884,808 L884,806 L886,806 L886,804 L888,804 L888,802 L890,802 L890,798 L892,798 L892,796 L894,796 L894,794 L896,794 L896,790 L898,790 L898,788 L900,788 L900,784 L902,784 L902,778 L904,778 L904,774 L906,774 L906,766 L908,766 L908,638 L698,638 L698,636 L690,636 L690,634 L684,634 L684,632 L680,632 L680,630 L678,630 L678,628 L674,628 L674,626 L672,626 L672,624 L670,624 L670,622 L668,622 L668,620 L666,620 L666,618 L664,618 L664,616 L662,616 L662,614 L660,614 L660,612 L658,612 L658,608 L656,608 L656,604 L654,604 L654,600 L652,600 L652,592 L651,592 L651,594 L650,594 L650,490 L652,490 L652,484 L654,484 L654,480 L656,480 L656,476 L658,476 L658,472 L660,472 L660,470 L662,470 L662,466 L664,466 L664,464 L666,464 L666,462 L668,462 L668,460 L670,460 L670,458 L672,458 L672,456 L676,456 L676,454 L678,454 L678,452 L682,452 L682,450 L686,450 L686,448 L692,448 L692,446 L698,446 L698,444 L908,444 L908,443 L910,443 L910,442 L908,442 L908,332 L906,332 L906,325 L904,325 L904,320 L902,320 L902,314 L900,314 L900,312 L898,312 L898,308 L896,308 L896,304 L894,304 L894,302 L892,302 L892,300 L890,300 L890,296 L888,296 L888,294 L886,294 L886,292 L884,292 L884,290 L880,290 L880,288 L878,288 L878,286 L876,286 L876,284 L873,284 L873,283 L874,283 L874,282 L870,282 L870,280 L866,280 L866,278 L862,278 L862,276 L858,276 L858,274 L852,274 L852,272 L844,272 L844,271 L843,271 L843,270 L194,270 L194,268 L188,268 L188,266 L184,266 L184,264 L182,264 L182,262 L180,262 L180,260 L178,260 L178,258 L176,258 L176,254 L174,254 L174,238 L176,238 L176,234 L178,234 L178,232 L180,232 L180,230 L182,230 L182,228 L184,228 L184,226 L188,226 L188,224 L196,224 L196,222 L848,222 L848,218 L850,218 L850,206 L848,206 L848,200 L846,200 L846,196 L844,196 L844,192 L842,192 L842,190 L840,190 L840,188 L836,188 L836,186 L834,186 L834,184 L830,184 L830,182 Z M700,472 L700,474 L696,474 L696,476 L692,476 L692,478 L688,478 L688,480 L686,480 L686,482 L684,482 L684,486 L682,486 L682,488 L680,488 L680,492 L678,492 L678,500 L676,500 L676,584 L678,584 L678,590 L680,590 L680,594 L682,594 L682,598 L684,598 L684,600 L686,600 L686,602 L688,602 L688,604 L692,604 L692,606 L694,606 L694,608 L700,608 L700,610 L712,610 L712,611 L713,611 L713,612 L715,612 L715,610 L717,610 L717,611 L716,611 L716,612 L720,612 L720,611 L719,611 L719,610 L924,610 L924,608 L930,608 L930,606 L932,606 L932,604 L936,604 L936,600 L938,600 L938,598 L940,598 L940,594 L942,594 L942,590 L944,590 L944,494 L942,494 L942,488 L940,488 L940,484 L938,484 L938,482 L936,482 L936,480 L934,480 L934,478 L932,478 L932,476 L928,476 L928,474 L924,474 L924,472 Z " fill="#000000" transform="translate(0,0)"/>
<path d="M0,0 L1,0 L1,1 L0,1 Z " fill="#000000" transform="translate(848,207)"/>
<path d="M0,0 L18,0 L18,2 L24,2 L24,4 L28,4 L28,6 L30,6 L30,8 L32,8 L32,10 L34,10 L34,12 L36,12 L36,14 L38,14 L38,18 L40,18 L40,22 L42,22 L42,44 L40,44 L40,48 L38,48 L38,52 L36,52 L36,54 L34,54 L34,56 L32,56 L32,58 L30,58 L30,60 L26,60 L26,62 L24,62 L24,64 L18,64 L18,66 L0,66 L0,64 L-6,64 L-6,62 L-8,62 L-8,60 L-12,60 L-12,58 L-14,58 L-14,56 L-16,56 L-16,54 L-18,54 L-18,52 L-20,52 L-20,48 L-22,48 L-22,42 L-24,42 L-24,24 L-22,24 L-22,18 L-20,18 L-20,16 L-18,16 L-18,12 L-16,12 L-16,10 L-14,10 L-14,8 L-12,8 L-12,6 L-8,6 L-8,4 L-6,4 L-6,2 L0,2 Z " fill="#000000" transform="translate(744,508)"/>
<path d="M0,0 L1,0 L1,2 L0,2 Z " fill="#000000" transform="translate(121,577)"/>
<path d="M0,0 L1,0 L1,5 L0,5 Z " fill="#000000" transform="translate(121,580)"/>
<path d="M0,0 L1,0 L1,1 L0,1 Z " fill="#000000" transform="translate(121,592)"/>
<path d="M0,0 L1,0 L1,1 L0,1 Z " fill="#000000" transform="translate(713,610)"/>
</svg>
